<svg xmlns="http://www.w3.org/2000/svg" xmlns:xlink="http://www.w3.org/1999/xlink" width="295" zoomAndPan="magnify" viewBox="0 0 221.25 231" height="308" preserveAspectRatio="xMidYMid meet" version="1.0"><defs><g/><clipPath id="b6744ea7bc"><path d="M 0 0.390625 L 220.503906 0.390625 L 220.503906 230.609375 L 0 230.609375 Z M 0 0.390625 " clip-rule="nonzero"/></clipPath><clipPath id="44ee49ad94"><path d="M 0 4 L 220.503906 4 L 220.503906 226 L 0 226 Z M 0 4 " clip-rule="nonzero"/></clipPath></defs><g clip-path="url(#b6744ea7bc)"><path fill="#ffffff" d="M 0 0.390625 L 220.503906 0.390625 L 220.503906 230.609375 L 0 230.609375 Z M 0 0.390625 " fill-opacity="1" fill-rule="nonzero"/></g><g clip-path="url(#44ee49ad94)"><path fill="#000000" d="M 110.25 4.976562 C 49.363281 4.976562 0 54.292969 0 115.125 C 0 175.960938 49.363281 225.273438 110.25 225.273438 C 171.140625 225.273438 220.503906 175.960938 220.503906 115.125 C 220.503906 54.292969 171.140625 4.976562 110.25 4.976562 Z M 18.375 115.125 C 18.375 64.429688 59.507812 23.335938 110.25 23.335938 C 160.992188 23.335938 202.128906 64.429688 202.128906 115.125 C 202.128906 156.4375 174.8125 191.371094 137.246094 202.890625 C 138.273438 184.339844 137.917969 172.847656 136.1875 168.417969 C 134.363281 163.738281 132.875 161.820312 131.980469 160.671875 C 131.394531 159.917969 131.066406 159.496094 131.066406 158.839844 C 131.066406 157.738281 131.84375 156.941406 133.394531 156.445312 C 146.933594 153.457031 156.011719 145.144531 160.628906 131.511719 C 167.027344 112.621094 157.894531 98.886719 154.199219 93.328125 C 153.894531 92.867188 153.625 92.464844 153.40625 92.117188 C 150.53125 87.585938 154.296875 76.558594 158.792969 67.730469 C 143.503906 64.667969 137.667969 71.765625 134.316406 75.835938 C 132.949219 77.496094 132 78.652344 130.988281 78.40625 C 130.085938 78.1875 129.113281 77.761719 127.945312 77.25 C 124.609375 75.785156 119.6875 73.621094 110.25 73.621094 C 98.550781 73.621094 90.800781 77.703125 89.613281 78.328125 C 89.511719 78.382812 89.457031 78.40625 89.457031 78.40625 C 83.304688 69.84375 74.574219 66.285156 63.253906 67.730469 C 66.371094 80.175781 66.605469 88.304688 63.957031 92.117188 C 59.984375 97.839844 52.539062 111.148438 58.320312 131.511719 C 64.101562 151.875 85.148438 156.445312 89.152344 156.445312 L 89.179688 156.453125 C 89.5 156.519531 92.445312 157.15625 91.5625 159.644531 C 91.386719 160.308594 91.273438 161.207031 91.140625 162.222656 C 90.722656 165.484375 90.15625 169.914062 87.027344 171.355469 C 82.921875 173.242188 73.871094 174.273438 70.082031 171.917969 C 68.820312 171.132812 67.914062 169.488281 66.824219 167.507812 C 64.636719 163.546875 61.710938 158.242188 53.707031 155.769531 C 41.703125 152.070312 42.453125 156.964844 45.449219 158.167969 C 46.109375 158.429688 46.984375 158.679688 47.984375 158.960938 C 51.515625 159.960938 56.601562 161.398438 59.210938 165.589844 C 59.972656 166.816406 60.757812 168.164062 61.5625 169.539062 C 64.273438 174.179688 67.179688 179.152344 70.082031 181.058594 C 72.59375 182.710938 78.605469 183.367188 88.121094 183.039062 C 87.710938 192.015625 87.488281 199.027344 87.460938 204.070312 C 47.742188 193.941406 18.375 157.960938 18.375 115.125 Z M 18.375 115.125 " fill-opacity="0.85" fill-rule="evenodd"/></g><g fill="#ffffff" fill-opacity="1"><g transform="translate(70.018296, 196.22504)"><g><path d="M 6.15625 2.859375 L 6.15625 -0.984375 L 6.015625 -1.015625 C 5.734375 -0.617188 5.394531 -0.328125 5 -0.140625 C 4.613281 0.046875 4.164062 0.140625 3.65625 0.140625 C 3.082031 0.140625 2.578125 0.00390625 2.140625 -0.265625 C 1.710938 -0.535156 1.378906 -0.941406 1.140625 -1.484375 C 0.898438 -2.023438 0.78125 -2.6875 0.78125 -3.46875 C 0.78125 -4.300781 0.90625 -4.992188 1.15625 -5.546875 C 1.414062 -6.097656 1.769531 -6.507812 2.21875 -6.78125 C 2.664062 -7.050781 3.1875 -7.1875 3.78125 -7.1875 C 4.25 -7.1875 4.671875 -7.097656 5.046875 -6.921875 C 5.429688 -6.753906 5.753906 -6.46875 6.015625 -6.0625 L 6.15625 -6.078125 L 6.15625 -7.0625 L 7.1875 -7.0625 L 7.1875 2.859375 Z M 3.984375 -0.796875 C 4.410156 -0.796875 4.785156 -0.890625 5.109375 -1.078125 C 5.429688 -1.273438 5.6875 -1.570312 5.875 -1.96875 C 6.0625 -2.375 6.15625 -2.875 6.15625 -3.46875 C 6.15625 -4.414062 5.957031 -5.117188 5.5625 -5.578125 C 5.164062 -6.035156 4.640625 -6.265625 3.984375 -6.265625 C 2.578125 -6.265625 1.875 -5.332031 1.875 -3.46875 C 1.875 -2.550781 2.054688 -1.875 2.421875 -1.4375 C 2.785156 -1.007812 3.304688 -0.796875 3.984375 -0.796875 Z M 3.984375 -0.796875 "/></g></g></g></svg>