<svg xmlns="http://www.w3.org/2000/svg" xmlns:xlink="http://www.w3.org/1999/xlink" width="308" zoomAndPan="magnify" viewBox="0 0 230.87999 231" height="308" preserveAspectRatio="xMidYMid meet" version="1.0"><defs><g/><clipPath id="124a082a42"><path d="M 0 0.0585938 L 230.761719 0.0585938 L 230.761719 230.9375 L 0 230.9375 Z M 0 0.0585938 " clip-rule="nonzero"/></clipPath><clipPath id="d89a1600c1"><path d="M 0 0.0585938 L 230.128906 0.0585938 L 230.128906 230.191406 L 0 230.191406 Z M 0 0.0585938 " clip-rule="nonzero"/></clipPath></defs><g clip-path="url(#124a082a42)"><path fill="#ffffff" d="M 0 0.0585938 L 230.878906 0.0585938 L 230.878906 230.941406 L 0 230.941406 Z M 0 0.0585938 " fill-opacity="1" fill-rule="nonzero"/></g><g fill="#ffffff" fill-opacity="1"><g transform="translate(135.211357, 184.351992)"><g><path d="M 6.171875 2.875 L 6.171875 -1 L 6.03125 -1.015625 C 5.75 -0.617188 5.410156 -0.328125 5.015625 -0.140625 C 4.617188 0.046875 4.164062 0.140625 3.65625 0.140625 C 3.09375 0.140625 2.59375 0.00390625 2.15625 -0.265625 C 1.726562 -0.535156 1.390625 -0.941406 1.140625 -1.484375 C 0.898438 -2.023438 0.78125 -2.691406 0.78125 -3.484375 C 0.78125 -4.304688 0.90625 -4.992188 1.15625 -5.546875 C 1.414062 -6.109375 1.769531 -6.523438 2.21875 -6.796875 C 2.675781 -7.078125 3.203125 -7.21875 3.796875 -7.21875 C 4.265625 -7.21875 4.6875 -7.128906 5.0625 -6.953125 C 5.445312 -6.773438 5.769531 -6.476562 6.03125 -6.0625 L 6.171875 -6.09375 L 6.171875 -7.078125 L 7.21875 -7.078125 L 7.21875 2.875 Z M 4 -0.796875 C 4.425781 -0.796875 4.800781 -0.890625 5.125 -1.078125 C 5.445312 -1.273438 5.703125 -1.570312 5.890625 -1.96875 C 6.078125 -2.375 6.171875 -2.878906 6.171875 -3.484375 C 6.171875 -4.429688 5.972656 -5.132812 5.578125 -5.59375 C 5.179688 -6.050781 4.65625 -6.28125 4 -6.28125 C 2.582031 -6.28125 1.875 -5.347656 1.875 -3.484375 C 1.875 -2.566406 2.054688 -1.890625 2.421875 -1.453125 C 2.796875 -1.015625 3.320312 -0.796875 4 -0.796875 Z M 4 -0.796875 "/></g></g></g><g clip-path="url(#d89a1600c1)"><path fill="#2197bd" d="M 230.132812 195.199219 C 230.132812 214.511719 214.472656 230.167969 195.160156 230.167969 L 34.976562 230.167969 C 15.664062 230.167969 0.0078125 214.511719 0.0078125 195.199219 L 0.0078125 35.015625 C 0.0078125 15.703125 15.664062 0.046875 34.976562 0.046875 L 195.160156 0.046875 C 214.476562 0.046875 230.132812 15.703125 230.132812 35.015625 Z M 230.132812 195.199219 " fill-opacity="1" fill-rule="nonzero"/></g><path fill="#ffffff" d="M 91.003906 82.148438 C 91.003906 82.710938 90.976562 83.273438 90.921875 83.832031 C 90.867188 84.390625 90.785156 84.949219 90.671875 85.5 C 90.5625 86.054688 90.425781 86.597656 90.261719 87.136719 C 90.101562 87.675781 89.910156 88.207031 89.695312 88.726562 C 89.480469 89.246094 89.238281 89.753906 88.972656 90.25 C 88.707031 90.746094 88.417969 91.230469 88.105469 91.699219 C 87.792969 92.164062 87.457031 92.617188 87.101562 93.054688 C 86.746094 93.488281 86.367188 93.90625 85.96875 94.304688 C 85.570312 94.699219 85.152344 95.078125 84.71875 95.4375 C 84.285156 95.792969 83.832031 96.128906 83.363281 96.441406 C 82.894531 96.753906 82.414062 97.042969 81.917969 97.308594 C 81.421875 97.574219 80.910156 97.8125 80.390625 98.03125 C 79.871094 98.246094 79.34375 98.433594 78.804688 98.597656 C 78.265625 98.761719 77.71875 98.898438 77.167969 99.007812 C 76.613281 99.117188 76.058594 99.199219 75.496094 99.253906 C 74.9375 99.308594 74.375 99.339844 73.8125 99.339844 C 73.25 99.339844 72.6875 99.308594 72.128906 99.253906 C 71.566406 99.199219 71.011719 99.117188 70.460938 99.007812 C 69.90625 98.898438 69.363281 98.761719 68.824219 98.597656 C 68.285156 98.433594 67.753906 98.246094 67.234375 98.03125 C 66.714844 97.8125 66.207031 97.574219 65.710938 97.308594 C 65.210938 97.042969 64.730469 96.753906 64.261719 96.441406 C 63.792969 96.128906 63.34375 95.792969 62.90625 95.4375 C 62.472656 95.078125 62.054688 94.699219 61.65625 94.304688 C 61.257812 93.90625 60.882812 93.488281 60.523438 93.054688 C 60.167969 92.617188 59.832031 92.164062 59.519531 91.699219 C 59.207031 91.230469 58.917969 90.746094 58.652344 90.25 C 58.386719 89.753906 58.144531 89.246094 57.929688 88.726562 C 57.714844 88.207031 57.527344 87.675781 57.363281 87.136719 C 57.199219 86.597656 57.0625 86.054688 56.953125 85.5 C 56.84375 84.949219 56.761719 84.390625 56.703125 83.832031 C 56.648438 83.273438 56.621094 82.710938 56.621094 82.148438 C 56.621094 81.585938 56.648438 81.023438 56.703125 80.460938 C 56.761719 79.902344 56.84375 79.34375 56.953125 78.792969 C 57.0625 78.242188 57.199219 77.695312 57.363281 77.15625 C 57.527344 76.617188 57.714844 76.089844 57.929688 75.570312 C 58.144531 75.046875 58.386719 74.539062 58.652344 74.042969 C 58.917969 73.546875 59.207031 73.066406 59.519531 72.597656 C 59.832031 72.128906 60.167969 71.675781 60.523438 71.242188 C 60.882812 70.804688 61.257812 70.390625 61.65625 69.992188 C 62.054688 69.59375 62.472656 69.214844 62.90625 68.859375 C 63.34375 68.5 63.792969 68.167969 64.261719 67.851562 C 64.730469 67.539062 65.210938 67.25 65.710938 66.984375 C 66.207031 66.722656 66.714844 66.480469 67.234375 66.265625 C 67.753906 66.050781 68.285156 65.859375 68.824219 65.695312 C 69.363281 65.53125 69.90625 65.394531 70.460938 65.285156 C 71.011719 65.175781 71.566406 65.09375 72.128906 65.039062 C 72.6875 64.984375 73.25 64.957031 73.8125 64.957031 C 74.375 64.957031 74.9375 64.984375 75.496094 65.039062 C 76.058594 65.09375 76.613281 65.175781 77.167969 65.285156 C 77.71875 65.394531 78.265625 65.53125 78.804688 65.695312 C 79.34375 65.859375 79.871094 66.050781 80.390625 66.265625 C 80.910156 66.480469 81.421875 66.722656 81.917969 66.984375 C 82.414062 67.25 82.894531 67.539062 83.363281 67.851562 C 83.832031 68.167969 84.285156 68.5 84.71875 68.859375 C 85.152344 69.214844 85.570312 69.59375 85.96875 69.992188 C 86.367188 70.390625 86.746094 70.804688 87.101562 71.242188 C 87.457031 71.675781 87.792969 72.128906 88.105469 72.597656 C 88.417969 73.066406 88.707031 73.546875 88.972656 74.042969 C 89.238281 74.539062 89.480469 75.046875 89.695312 75.570312 C 89.910156 76.089844 90.101562 76.617188 90.261719 77.15625 C 90.425781 77.695312 90.5625 78.242188 90.671875 78.792969 C 90.785156 79.34375 90.867188 79.902344 90.921875 80.460938 C 90.976562 81.023438 91.003906 81.585938 91.003906 82.148438 Z M 91.003906 82.148438 " fill-opacity="1" fill-rule="nonzero"/><path fill="#ffffff" d="M 58.992188 112.011719 L 88.527344 112.011719 L 88.527344 207.019531 L 58.992188 207.019531 Z M 58.992188 112.011719 " fill-opacity="1" fill-rule="nonzero"/><path fill="#ffffff" d="M 107.101562 112.011719 L 135.210938 112.011719 L 135.210938 207.019531 L 107.101562 207.019531 Z M 107.101562 112.011719 " fill-opacity="1" fill-rule="nonzero"/><path fill="#ffffff" d="M 108.316406 162.597656 L 136.425781 162.597656 L 136.425781 207.019531 L 108.316406 207.019531 Z M 108.316406 162.597656 " fill-opacity="1" fill-rule="nonzero"/><path fill="#ffffff" d="M 136.425781 162.597656 C 136.425781 162.597656 135.984375 150.273438 139.234375 143.867188 C 139.234375 143.867188 142.484375 135.976562 152.703125 135.929688 C 152.703125 135.929688 164.683594 133.835938 168.117188 145.726562 C 168.117188 145.726562 169.417969 152.316406 169.417969 155.105469 C 169.417969 157.890625 169.511719 207.019531 169.511719 207.019531 L 198.949219 207.019531 L 198.949219 152.597656 C 198.949219 152.597656 201.085938 121.855469 182.636719 113.433594 C 182.636719 113.433594 152.296875 99.816406 135.832031 124.828125 C 135.832031 124.828125 132.238281 127.304688 131.742188 120.371094 C 131.246094 113.433594 127.039062 131.019531 126.914062 131.390625 C 126.789062 131.761719 131.742188 166.433594 131.742188 166.433594 Z M 136.425781 162.597656 " fill-opacity="1" fill-rule="nonzero"/></svg>