<svg xmlns="http://www.w3.org/2000/svg" xmlns:xlink="http://www.w3.org/1999/xlink" width="286" zoomAndPan="magnify" viewBox="0 0 214.5 214.499992" height="286" preserveAspectRatio="xMidYMid meet" version="1.0"><defs><clipPath id="17e6709a84"><path d="M 0 0 L 213.628906 0 L 213.628906 213.628906 L 0 213.628906 Z M 0 0 " clip-rule="nonzero"/></clipPath><clipPath id="94f8307546"><path d="M 106.816406 0 C 47.824219 0 0 47.824219 0 106.816406 C 0 165.808594 47.824219 213.628906 106.816406 213.628906 C 165.808594 213.628906 213.628906 165.808594 213.628906 106.816406 C 213.628906 47.824219 165.808594 0 106.816406 0 Z M 106.816406 0 " clip-rule="nonzero"/></clipPath><clipPath id="1a565e6a30"><path d="M 90.863281 90.863281 L 122.765625 90.863281 L 122.765625 122.765625 L 90.863281 122.765625 Z M 90.863281 90.863281 " clip-rule="nonzero"/></clipPath><clipPath id="8f42dccc26"><path d="M 106.816406 90.863281 C 98.003906 90.863281 90.863281 98.003906 90.863281 106.816406 C 90.863281 115.625 98.003906 122.765625 106.816406 122.765625 C 115.625 122.765625 122.765625 115.625 122.765625 106.816406 C 122.765625 98.003906 115.625 90.863281 106.816406 90.863281 Z M 106.816406 90.863281 " clip-rule="nonzero"/></clipPath><clipPath id="cdfe09716b"><path d="M 63 64 L 151 64 L 151 151.464844 L 63 151.464844 Z M 63 64 " clip-rule="nonzero"/></clipPath><clipPath id="5354ba88b2"><path d="M 71.824219 132.671875 L 90.863281 132.671875 L 90.863281 151.707031 L 71.824219 151.707031 Z M 71.824219 132.671875 " clip-rule="nonzero"/></clipPath><clipPath id="816b4d6c4a"><path d="M 81.34375 132.671875 C 76.085938 132.671875 71.824219 136.933594 71.824219 142.1875 C 71.824219 147.445312 76.085938 151.707031 81.34375 151.707031 C 86.601562 151.707031 90.863281 147.445312 90.863281 142.1875 C 90.863281 136.933594 86.601562 132.671875 81.34375 132.671875 Z M 81.34375 132.671875 " clip-rule="nonzero"/></clipPath><clipPath id="43b42e1b8e"><path d="M 33 35 L 182 35 L 182 182.941406 L 33 182.941406 Z M 33 35 " clip-rule="nonzero"/></clipPath><clipPath id="6ead41fb87"><path d="M 166.5625 79.679688 L 185.601562 79.679688 L 185.601562 98.714844 L 166.5625 98.714844 Z M 166.5625 79.679688 " clip-rule="nonzero"/></clipPath><clipPath id="3c9ba4e9c0"><path d="M 176.082031 79.679688 C 170.824219 79.679688 166.5625 83.941406 166.5625 89.199219 C 166.5625 94.453125 170.824219 98.714844 176.082031 98.714844 C 181.339844 98.714844 185.601562 94.453125 185.601562 89.199219 C 185.601562 83.941406 181.339844 79.679688 176.082031 79.679688 Z M 176.082031 79.679688 " clip-rule="nonzero"/></clipPath><clipPath id="bea2966e18"><path d="M 113.25 60.640625 L 132.285156 60.640625 L 132.285156 79.679688 L 113.25 79.679688 Z M 113.25 60.640625 " clip-rule="nonzero"/></clipPath><clipPath id="55c5a3cb17"><path d="M 122.765625 60.640625 C 117.511719 60.640625 113.25 64.902344 113.25 70.160156 C 113.25 75.417969 117.511719 79.679688 122.765625 79.679688 C 128.023438 79.679688 132.285156 75.417969 132.285156 70.160156 C 132.285156 64.902344 128.023438 60.640625 122.765625 60.640625 Z M 122.765625 60.640625 " clip-rule="nonzero"/></clipPath><clipPath id="782aeb7b66"><path d="M 122.765625 163.707031 L 141.804688 163.707031 L 141.804688 182.746094 L 122.765625 182.746094 Z M 122.765625 163.707031 " clip-rule="nonzero"/></clipPath><clipPath id="7f5e9e729d"><path d="M 132.285156 163.707031 C 127.027344 163.707031 122.765625 167.96875 122.765625 173.226562 C 122.765625 178.484375 127.027344 182.746094 132.285156 182.746094 C 137.542969 182.746094 141.804688 178.484375 141.804688 173.226562 C 141.804688 167.96875 137.542969 163.707031 132.285156 163.707031 Z M 132.285156 163.707031 " clip-rule="nonzero"/></clipPath><clipPath id="67d53ae28d"><path d="M 28.027344 90.863281 L 47.066406 90.863281 L 47.066406 109.898438 L 28.027344 109.898438 Z M 28.027344 90.863281 " clip-rule="nonzero"/></clipPath><clipPath id="07a7c738e3"><path d="M 37.546875 90.863281 C 32.289062 90.863281 28.027344 95.125 28.027344 100.382812 C 28.027344 105.636719 32.289062 109.898438 37.546875 109.898438 C 42.804688 109.898438 47.066406 105.636719 47.066406 100.382812 C 47.066406 95.125 42.804688 90.863281 37.546875 90.863281 Z M 37.546875 90.863281 " clip-rule="nonzero"/></clipPath><clipPath id="929ce21ab5"><path d="M 71.824219 35.96875 L 90.863281 35.96875 L 90.863281 55.003906 L 71.824219 55.003906 Z M 71.824219 35.96875 " clip-rule="nonzero"/></clipPath><clipPath id="f6e27b650c"><path d="M 81.34375 35.96875 C 76.085938 35.96875 71.824219 40.230469 71.824219 45.488281 C 71.824219 50.742188 76.085938 55.003906 81.34375 55.003906 C 86.601562 55.003906 90.863281 50.742188 90.863281 45.488281 C 90.863281 40.230469 86.601562 35.96875 81.34375 35.96875 Z M 81.34375 35.96875 " clip-rule="nonzero"/></clipPath></defs><g clip-path="url(#17e6709a84)"><g clip-path="url(#94f8307546)"><path fill="#000000" d="M 0 0 L 213.628906 0 L 213.628906 213.628906 L 0 213.628906 Z M 0 0 " fill-opacity="1" fill-rule="nonzero"/></g></g><g clip-path="url(#1a565e6a30)"><g clip-path="url(#8f42dccc26)"><path fill="#ffffff" d="M 90.863281 90.863281 L 122.765625 90.863281 L 122.765625 122.765625 L 90.863281 122.765625 Z M 90.863281 90.863281 " fill-opacity="1" fill-rule="nonzero"/></g></g><g clip-path="url(#cdfe09716b)"><path fill="#ffffff" d="M 107.179688 151.664062 C 105.039062 151.664062 102.910156 151.507812 100.792969 151.191406 C 98.675781 150.878906 96.59375 150.410156 94.546875 149.789062 C 92.496094 149.167969 90.503906 148.402344 88.570312 147.484375 C 86.636719 146.570312 84.777344 145.519531 83 144.328125 C 81.21875 143.140625 79.535156 141.828125 77.949219 140.390625 C 76.363281 138.953125 74.894531 137.40625 73.535156 135.753906 C 72.179688 134.097656 70.949219 132.351562 69.847656 130.515625 C 68.746094 128.679688 67.789062 126.773438 66.96875 124.796875 C 66.148438 122.820312 65.480469 120.792969 64.960938 118.71875 C 64.441406 116.640625 64.074219 114.539062 63.867188 112.40625 C 63.65625 110.277344 63.605469 108.144531 63.707031 106.007812 C 63.8125 103.867188 64.074219 101.75 64.492188 99.652344 C 64.910156 97.550781 65.480469 95.496094 66.199219 93.480469 C 66.921875 91.464844 67.785156 89.511719 68.796875 87.625 C 69.804688 85.738281 70.945312 83.933594 72.222656 82.214844 C 73.496094 80.496094 74.890625 78.878906 76.402344 77.367188 C 77.410156 76.355469 78.464844 75.394531 79.566406 74.484375 C 80.667969 73.574219 81.8125 72.722656 82.996094 71.925781 C 84.183594 71.128906 85.402344 70.390625 86.660156 69.714844 C 87.917969 69.039062 89.207031 68.425781 90.523438 67.878906 C 91.84375 67.328125 93.183594 66.84375 94.550781 66.425781 C 95.917969 66.007812 97.300781 65.660156 98.699219 65.378906 C 100.101562 65.097656 101.511719 64.886719 102.933594 64.742188 C 104.351562 64.601562 105.777344 64.527344 107.207031 64.527344 C 108.632812 64.523438 110.058594 64.59375 111.480469 64.730469 C 112.902344 64.867188 114.3125 65.078125 115.714844 65.351562 C 117.113281 65.628906 118.5 65.976562 119.867188 66.390625 C 121.234375 66.800781 122.578125 67.28125 123.894531 67.828125 C 125.214844 68.371094 126.503906 68.980469 127.765625 69.652344 C 129.027344 70.328125 130.25 71.058594 131.4375 71.851562 C 132.625 72.644531 133.769531 73.496094 134.875 74.398438 C 135.980469 75.304688 137.035156 76.265625 138.046875 77.273438 C 139.054688 78.285156 140.011719 79.339844 140.917969 80.445312 C 141.824219 81.550781 142.675781 82.695312 143.46875 83.882812 C 144.261719 85.070312 144.992188 86.292969 145.664062 87.554688 C 146.339844 88.8125 146.945312 90.105469 147.492188 91.421875 C 148.039062 92.742188 148.519531 94.085938 148.929688 95.453125 C 149.34375 96.820312 149.6875 98.203125 149.964844 99.605469 C 150.242188 101.007812 150.449219 102.417969 150.589844 103.839844 C 150.726562 105.261719 150.796875 106.6875 150.792969 108.113281 C 150.789062 109.542969 150.71875 110.964844 150.574219 112.386719 C 150.433594 113.808594 150.222656 115.21875 149.941406 116.621094 C 149.660156 118.019531 149.308594 119.402344 148.894531 120.769531 C 148.476562 122.132812 147.992188 123.476562 147.441406 124.792969 C 146.894531 126.113281 146.28125 127.402344 145.601562 128.660156 C 144.925781 129.917969 144.191406 131.136719 143.394531 132.324219 C 142.597656 133.507812 141.746094 134.652344 140.835938 135.753906 C 139.925781 136.855469 138.964844 137.910156 137.953125 138.914062 C 135.9375 140.941406 133.742188 142.75 131.367188 144.34375 C 128.992188 145.933594 126.484375 147.277344 123.84375 148.371094 C 121.203125 149.464844 118.480469 150.289062 115.675781 150.84375 C 112.871094 151.398438 110.039062 151.671875 107.179688 151.664062 Z M 107.179688 66.242188 C 84.074219 66.242188 65.277344 85.035156 65.277344 108.140625 C 65.277344 131.246094 84.074219 150.042969 107.179688 150.042969 C 130.285156 150.042969 149.078125 131.246094 149.078125 108.140625 C 149.078125 85.039062 130.28125 66.242188 107.179688 66.242188 Z M 107.179688 66.242188 " fill-opacity="1" fill-rule="nonzero"/></g><g clip-path="url(#5354ba88b2)"><g clip-path="url(#816b4d6c4a)"><path fill="#ffffff" d="M 71.824219 132.671875 L 90.863281 132.671875 L 90.863281 151.707031 L 71.824219 151.707031 Z M 71.824219 132.671875 " fill-opacity="1" fill-rule="nonzero"/></g></g><g clip-path="url(#43b42e1b8e)"><path fill="#ffffff" d="M 107.421875 182.65625 C 105.613281 182.65625 103.808594 182.589844 102.007812 182.457031 C 100.203125 182.324219 98.410156 182.125 96.621094 181.859375 C 94.832031 181.59375 93.058594 181.265625 91.292969 180.867188 C 89.53125 180.472656 87.785156 180.011719 86.054688 179.488281 C 84.324219 178.964844 82.617188 178.375 80.929688 177.726562 C 79.246094 177.074219 77.585938 176.363281 75.953125 175.589844 C 74.316406 174.816406 72.714844 173.984375 71.140625 173.09375 C 69.570312 172.203125 68.03125 171.257812 66.527344 170.253906 C 65.027344 169.25 63.5625 168.191406 62.136719 167.078125 C 60.714844 165.96875 59.332031 164.804688 57.992188 163.589844 C 56.652344 162.378906 55.359375 161.117188 54.113281 159.808594 C 52.867188 158.496094 51.671875 157.144531 50.523438 155.746094 C 49.378906 154.351562 48.285156 152.914062 47.242188 151.4375 C 46.203125 149.957031 45.21875 148.445312 44.289062 146.894531 C 43.359375 145.34375 42.488281 143.761719 41.675781 142.148438 C 40.863281 140.535156 40.113281 138.890625 39.421875 137.222656 C 38.730469 135.550781 38.097656 133.859375 37.53125 132.144531 C 36.964844 130.425781 36.460938 128.691406 36.023438 126.9375 C 35.585938 125.1875 35.210938 123.417969 34.902344 121.636719 C 34.59375 119.859375 34.347656 118.066406 34.171875 116.269531 C 33.996094 114.472656 33.882812 112.667969 33.839844 110.863281 C 33.796875 109.054688 33.816406 107.25 33.90625 105.445312 C 33.996094 103.640625 34.148438 101.839844 34.371094 100.046875 C 34.59375 98.253906 34.878906 96.46875 35.230469 94.695312 C 35.585938 92.921875 36.003906 91.167969 36.484375 89.425781 C 36.964844 87.683594 37.511719 85.960938 38.121094 84.257812 C 38.730469 82.558594 39.398438 80.882812 40.132812 79.230469 C 40.863281 77.578125 41.65625 75.953125 42.507812 74.359375 C 43.359375 72.765625 44.269531 71.207031 45.238281 69.679688 C 46.203125 68.152344 47.226562 66.664062 48.304688 65.210938 C 49.378906 63.757812 50.507812 62.347656 51.6875 60.980469 C 52.867188 59.613281 54.097656 58.289062 55.375 57.011719 C 56.226562 56.15625 57.097656 55.320312 57.988281 54.507812 C 58.882812 53.695312 59.792969 52.902344 60.722656 52.136719 C 61.65625 51.367188 62.605469 50.621094 63.570312 49.902344 C 64.539062 49.179688 65.523438 48.480469 66.523438 47.808594 C 67.527344 47.136719 68.542969 46.488281 69.578125 45.863281 C 70.609375 45.242188 71.660156 44.644531 72.722656 44.074219 C 73.785156 43.5 74.863281 42.957031 75.953125 42.4375 C 77.042969 41.917969 78.144531 41.425781 79.257812 40.960938 C 80.371094 40.5 81.496094 40.0625 82.632812 39.652344 C 83.765625 39.242188 84.910156 38.863281 86.066406 38.511719 C 87.21875 38.15625 88.382812 37.832031 89.550781 37.539062 C 90.722656 37.242188 91.898438 36.976562 93.082031 36.738281 C 94.265625 36.5 95.453125 36.292969 96.648438 36.113281 C 97.839844 35.933594 99.039062 35.785156 100.238281 35.664062 C 101.4375 35.542969 102.640625 35.453125 103.847656 35.390625 C 105.050781 35.328125 106.257812 35.296875 107.464844 35.296875 C 108.671875 35.292969 109.878906 35.320312 111.082031 35.378906 C 112.289062 35.4375 113.492188 35.523438 114.695312 35.640625 C 115.894531 35.757812 117.09375 35.902344 118.285156 36.078125 C 119.480469 36.253906 120.667969 36.460938 121.855469 36.695312 C 123.039062 36.929688 124.214844 37.191406 125.386719 37.484375 C 126.558594 37.773438 127.71875 38.097656 128.875 38.445312 C 130.03125 38.792969 131.175781 39.171875 132.3125 39.578125 C 133.449219 39.984375 134.574219 40.417969 135.691406 40.878906 C 136.804688 41.339844 137.910156 41.828125 139 42.339844 C 140.09375 42.855469 141.171875 43.398438 142.234375 43.96875 C 143.300781 44.535156 144.351562 45.128906 145.386719 45.75 C 146.421875 46.371094 147.441406 47.015625 148.445312 47.683594 C 149.449219 48.355469 150.433594 49.050781 151.402344 49.769531 C 152.375 50.488281 153.324219 51.226562 154.257812 51.992188 C 155.191406 52.757812 156.105469 53.546875 157 54.359375 C 157.894531 55.167969 158.765625 56 159.621094 56.851562 C 160.472656 57.707031 161.304688 58.582031 162.117188 59.476562 C 162.925781 60.367188 163.714844 61.28125 164.480469 62.214844 C 165.246094 63.148438 165.988281 64.101562 166.707031 65.070312 C 167.425781 66.039062 168.117188 67.027344 168.789062 68.03125 C 169.460938 69.035156 170.105469 70.054688 170.722656 71.089844 C 171.34375 72.125 171.9375 73.171875 172.507812 74.238281 C 173.074219 75.304688 173.617188 76.382812 174.132812 77.472656 C 174.648438 78.5625 175.136719 79.667969 175.597656 80.78125 C 176.058594 81.898438 176.492188 83.023438 176.894531 84.160156 C 177.300781 85.296875 177.679688 86.441406 178.027344 87.597656 C 178.378906 88.753906 178.699219 89.917969 178.988281 91.085938 C 179.28125 92.257812 179.546875 93.4375 179.78125 94.621094 C 180.011719 95.804688 180.21875 96.992188 180.394531 98.1875 C 180.570312 99.378906 180.714844 100.578125 180.832031 101.78125 C 180.949219 102.980469 181.035156 104.183594 181.09375 105.390625 C 181.152344 106.59375 181.179688 107.800781 181.175781 109.007812 C 181.175781 110.214844 181.144531 111.421875 181.082031 112.625 C 181.023438 113.832031 180.929688 115.035156 180.808594 116.234375 C 180.691406 117.4375 180.539062 118.632812 180.359375 119.828125 C 180.183594 121.019531 179.972656 122.207031 179.734375 123.390625 C 179.5 124.574219 179.230469 125.75 178.9375 126.921875 C 178.640625 128.09375 178.316406 129.253906 177.964844 130.410156 C 177.609375 131.5625 177.230469 132.707031 176.820312 133.84375 C 176.410156 134.976562 175.976562 136.101562 175.511719 137.214844 C 175.046875 138.332031 174.554688 139.433594 174.035156 140.523438 C 173.519531 141.613281 172.972656 142.6875 172.402344 143.75 C 171.828125 144.8125 171.230469 145.863281 170.609375 146.894531 C 169.984375 147.929688 169.339844 148.945312 168.664062 149.949219 C 167.992188 150.949219 167.292969 151.933594 166.574219 152.902344 C 165.851562 153.871094 165.105469 154.820312 164.339844 155.75 C 163.570312 156.679688 162.777344 157.589844 161.964844 158.484375 C 161.152344 159.375 160.316406 160.246094 159.460938 161.097656 C 156.054688 164.523438 152.339844 167.585938 148.324219 170.277344 C 144.308594 172.96875 140.066406 175.238281 135.601562 177.089844 C 131.132812 178.9375 126.53125 180.332031 121.785156 181.269531 C 117.042969 182.207031 112.253906 182.667969 107.421875 182.65625 Z M 107.421875 38.195312 C 68.347656 38.195312 36.558594 69.980469 36.558594 109.054688 C 36.558594 148.128906 68.347656 179.914062 107.421875 179.914062 C 146.496094 179.914062 178.277344 148.128906 178.277344 109.054688 C 178.277344 69.984375 146.492188 38.195312 107.421875 38.195312 Z M 107.421875 38.195312 " fill-opacity="1" fill-rule="nonzero"/></g><g clip-path="url(#6ead41fb87)"><g clip-path="url(#3c9ba4e9c0)"><path fill="#ffffff" d="M 166.5625 79.679688 L 185.601562 79.679688 L 185.601562 98.714844 L 166.5625 98.714844 Z M 166.5625 79.679688 " fill-opacity="1" fill-rule="nonzero"/></g></g><g clip-path="url(#bea2966e18)"><g clip-path="url(#55c5a3cb17)"><path fill="#ffffff" d="M 113.25 60.640625 L 132.285156 60.640625 L 132.285156 79.679688 L 113.25 79.679688 Z M 113.25 60.640625 " fill-opacity="1" fill-rule="nonzero"/></g></g><g clip-path="url(#782aeb7b66)"><g clip-path="url(#7f5e9e729d)"><path fill="#ffffff" d="M 122.765625 163.707031 L 141.804688 163.707031 L 141.804688 182.746094 L 122.765625 182.746094 Z M 122.765625 163.707031 " fill-opacity="1" fill-rule="nonzero"/></g></g><g clip-path="url(#67d53ae28d)"><g clip-path="url(#07a7c738e3)"><path fill="#ffffff" d="M 28.027344 90.863281 L 47.066406 90.863281 L 47.066406 109.898438 L 28.027344 109.898438 Z M 28.027344 90.863281 " fill-opacity="1" fill-rule="nonzero"/></g></g><g clip-path="url(#929ce21ab5)"><g clip-path="url(#f6e27b650c)"><path fill="#ffffff" d="M 71.824219 35.96875 L 90.863281 35.96875 L 90.863281 55.003906 L 71.824219 55.003906 Z M 71.824219 35.96875 " fill-opacity="1" fill-rule="nonzero"/></g></g></svg>