<svg xmlns="http://www.w3.org/2000/svg" xmlns:xlink="http://www.w3.org/1999/xlink" width="308" zoomAndPan="magnify" viewBox="0 0 230.87999 231" height="308" preserveAspectRatio="xMidYMid meet" version="1.0"><defs><g/><clipPath id="4c39a9a9c3"><path d="M 0 0.0585938 L 230.761719 0.0585938 L 230.761719 230.9375 L 0 230.9375 Z M 0 0.0585938 " clip-rule="nonzero"/></clipPath><clipPath id="4c9a42652d"><path d="M 0 0.0585938 L 230.128906 0.0585938 L 230.128906 230.191406 L 0 230.191406 Z M 0 0.0585938 " clip-rule="nonzero"/></clipPath><clipPath id="5098f1b620"><path d="M 51 0.0585938 L 179 0.0585938 L 179 230.191406 L 51 230.191406 Z M 51 0.0585938 " clip-rule="nonzero"/></clipPath><clipPath id="1ef52697dc"><path d="M 112 0.0585938 L 118 0.0585938 L 118 230.191406 L 112 230.191406 Z M 112 0.0585938 " clip-rule="nonzero"/></clipPath><clipPath id="ae7963c902"><path d="M 0 112 L 230.128906 112 L 230.128906 118 L 0 118 Z M 0 112 " clip-rule="nonzero"/></clipPath></defs><g clip-path="url(#4c39a9a9c3)"><path fill="#ffffff" d="M 0 0.0585938 L 230.878906 0.0585938 L 230.878906 230.941406 L 0 230.941406 Z M 0 0.0585938 " fill-opacity="1" fill-rule="nonzero"/></g><g fill="#ffffff" fill-opacity="1"><g transform="translate(106.688291, 211.222257)"><g><path d="M 6.171875 2.875 L 6.171875 -1 L 6.03125 -1.015625 C 5.75 -0.617188 5.410156 -0.328125 5.015625 -0.140625 C 4.617188 0.046875 4.164062 0.140625 3.65625 0.140625 C 3.09375 0.140625 2.59375 0.00390625 2.15625 -0.265625 C 1.726562 -0.535156 1.390625 -0.941406 1.140625 -1.484375 C 0.898438 -2.023438 0.78125 -2.691406 0.78125 -3.484375 C 0.78125 -4.304688 0.90625 -4.992188 1.15625 -5.546875 C 1.414062 -6.109375 1.769531 -6.523438 2.21875 -6.796875 C 2.675781 -7.078125 3.203125 -7.21875 3.796875 -7.21875 C 4.265625 -7.21875 4.6875 -7.128906 5.0625 -6.953125 C 5.445312 -6.773438 5.769531 -6.476562 6.03125 -6.0625 L 6.171875 -6.09375 L 6.171875 -7.078125 L 7.21875 -7.078125 L 7.21875 2.875 Z M 4 -0.796875 C 4.425781 -0.796875 4.800781 -0.890625 5.125 -1.078125 C 5.445312 -1.273438 5.703125 -1.570312 5.890625 -1.96875 C 6.078125 -2.375 6.171875 -2.878906 6.171875 -3.484375 C 6.171875 -4.429688 5.972656 -5.132812 5.578125 -5.59375 C 5.179688 -6.050781 4.65625 -6.28125 4 -6.28125 C 2.582031 -6.28125 1.875 -5.347656 1.875 -3.484375 C 1.875 -2.566406 2.054688 -1.890625 2.421875 -1.453125 C 2.796875 -1.015625 3.320312 -0.796875 4 -0.796875 Z M 4 -0.796875 "/></g></g></g><g clip-path="url(#4c9a42652d)"><path fill="#000000" d="M 114.988281 5.023438 C 54.320312 5.023438 4.964844 54.378906 4.964844 115.046875 C 4.964844 175.714844 54.320312 225.074219 114.988281 225.074219 C 175.65625 225.074219 225.011719 175.714844 225.011719 115.046875 C 225.011719 54.378906 175.65625 5.023438 114.988281 5.023438 Z M 114.988281 230.097656 C 84.253906 230.097656 55.363281 218.128906 33.636719 196.398438 C 11.910156 174.667969 -0.0585938 145.777344 -0.0585938 115.046875 C -0.0585938 84.316406 11.90625 55.425781 33.636719 33.695312 C 55.363281 11.964844 84.253906 0 114.988281 0 C 145.714844 0 174.609375 11.964844 196.339844 33.695312 C 218.070312 55.425781 230.035156 84.316406 230.035156 115.046875 C 230.035156 145.777344 218.066406 174.667969 196.339844 196.398438 C 174.609375 218.128906 145.714844 230.097656 114.988281 230.097656 Z M 114.988281 230.097656 " fill-opacity="1" fill-rule="evenodd"/></g><path fill="#000000" d="M 202.636719 188.144531 C 202.210938 188.144531 201.785156 188.039062 201.390625 187.8125 C 180.253906 175.691406 148.761719 168.738281 114.988281 168.738281 C 81.214844 168.738281 49.722656 175.691406 28.585938 187.8125 C 27.382812 188.503906 25.847656 188.085938 25.160156 186.882812 C 24.46875 185.679688 24.878906 184.144531 26.085938 183.457031 C 47.957031 170.910156 80.363281 163.714844 114.988281 163.714844 C 149.617188 163.714844 182.019531 170.910156 203.886719 183.457031 C 205.089844 184.144531 205.507812 185.679688 204.820312 186.882812 C 204.351562 187.695312 203.503906 188.144531 202.636719 188.144531 Z M 202.636719 188.144531 " fill-opacity="1" fill-rule="evenodd"/><g clip-path="url(#5098f1b620)"><path fill="#000000" d="M 114.988281 5.023438 C 99.570312 5.023438 84.957031 16.261719 73.835938 36.671875 C 62.453125 57.566406 56.183594 85.398438 56.183594 115.046875 C 56.183594 144.695312 62.453125 172.527344 73.835938 193.421875 C 84.957031 213.832031 99.570312 225.074219 114.988281 225.074219 C 130.40625 225.074219 145.015625 213.832031 156.136719 193.421875 C 167.519531 172.527344 173.785156 144.695312 173.785156 115.046875 C 173.785156 85.398438 167.515625 57.566406 156.136719 36.671875 C 145.015625 16.261719 130.40625 5.023438 114.988281 5.023438 Z M 114.988281 230.097656 C 97.644531 230.097656 81.464844 217.925781 69.425781 195.824219 C 57.652344 174.207031 51.160156 145.519531 51.160156 115.046875 C 51.160156 84.574219 57.648438 55.890625 69.425781 34.269531 C 81.464844 12.171875 97.644531 0 114.988281 0 C 132.324219 0 148.503906 12.171875 160.546875 34.269531 C 172.328125 55.886719 178.808594 84.574219 178.808594 115.046875 C 178.8125 145.519531 172.328125 174.207031 160.546875 195.824219 C 148.507812 217.925781 132.324219 230.097656 114.988281 230.097656 Z M 114.988281 230.097656 " fill-opacity="1" fill-rule="evenodd"/></g><g clip-path="url(#1ef52697dc)"><path fill="#000000" d="M 114.988281 230.097656 C 113.601562 230.097656 112.476562 228.972656 112.476562 227.585938 L 112.476562 2.507812 C 112.476562 1.121094 113.601562 -0.00390625 114.988281 -0.00390625 C 116.375 -0.00390625 117.5 1.121094 117.5 2.507812 L 117.5 227.585938 C 117.5 228.96875 116.375 230.097656 114.988281 230.097656 Z M 114.988281 230.097656 " fill-opacity="1" fill-rule="evenodd"/></g><path fill="#000000" d="M 114.988281 67.253906 C 80.058594 67.253906 47.476562 59.953125 25.59375 47.226562 C 24.394531 46.53125 23.992188 44.992188 24.6875 43.792969 C 25.382812 42.59375 26.921875 42.1875 28.121094 42.886719 C 49.257812 55.179688 80.914062 62.230469 114.988281 62.230469 C 149.054688 62.230469 180.71875 55.179688 201.855469 42.886719 C 203.054688 42.1875 204.585938 42.59375 205.289062 43.792969 C 205.984375 44.992188 205.578125 46.53125 204.378906 47.226562 C 182.5 59.953125 149.917969 67.253906 114.988281 67.253906 Z M 114.988281 67.253906 " fill-opacity="1" fill-rule="evenodd"/><g clip-path="url(#ae7963c902)"><path fill="#000000" d="M 227.523438 117.558594 L 2.453125 117.558594 C 1.066406 117.558594 -0.0625 116.433594 -0.0625 115.046875 C -0.0625 113.660156 1.0625 112.535156 2.449219 112.535156 L 227.523438 112.535156 C 228.910156 112.535156 230.035156 113.660156 230.035156 115.046875 C 230.035156 116.433594 228.910156 117.558594 227.523438 117.558594 Z M 227.523438 117.558594 " fill-opacity="1" fill-rule="evenodd"/></g></svg>